# xmcd CD database file
#
# Track frame offsets:
#	150
#	10255
#	26150
#	39587
#	53335
#	63727
#	77102
#	91902
#	105135
#	118875
#	132427
#	150045
#	163817
#	177000
#	188140
#	201247
#	214860
#	226637
#
# Disc length: 3191 seconds
#
# Revision: 1
# Processed by: cddbd v1.5PL3 Copyright (c) Steve Scherf et al.
# Submitted via: CDex 1.51
#
DISCID=e00c7512
DTITLE=Die Zillertaler - 037 18 Super Hits Gold
DYEAR=1900
DGENRE=Volksmusik
TTITLE0=Der liebe Gott muﬂ a Tiroler sein
TTITLE1=Hab Angst, daﬂ i di verlier
TTITLE2=Herzimaus
TTITLE3=Die Leut in die Berg'
TTITLE4=Mitt'n auf'm Tanzboden
TTITLE5=I hab' a Engerl g'sehn
TTITLE6=Zillertaler Hochzeitsmarsch
TTITLE7=Du bist so a lieber Kerl
TTITLE8=Tirol, du bist mei Himmel
TTITLE9=Starkes Land, das Heimat heisst
TTITLE10=Danke
TTITLE11=A Handvoll Tirol
TTITLE12=Maria, Maria, Maria
TTITLE13=Herzerltanz
TTITLE14=Via Mala
TTITLE15=Keiner darf nach Hause geh'n
TTITLE16=Zillertaler Melchermuas
TTITLE17=Stella Alpina
EXTD=Aus der TV-Werbung
EXTT0=
EXTT1=
EXTT2=
EXTT3=
EXTT4=
EXTT5=
EXTT6=
EXTT7=
EXTT8=
EXTT9=
EXTT10=
EXTT11=
EXTT12=
EXTT13=
EXTT14=
EXTT15=
EXTT16=
EXTT17=
PLAYORDER=
